<svg width="88" height="88" viewBox="0 0 88 88" fill="none" xmlns="http://www.w3.org/2000/svg">
<g clip-path="url(#clip0_43_429)">
<path d="M47.5244 64.6248L45.8136 50.3742L26.5692 55.3096L24.0002 50.6211L35.2306 40.8881H27.561L25.9263 35.9354L30.8524 32.4746L29.1846 32.2219L30.043 26.8193L38.4639 28.095L39.6694 33.0156L36.2455 35.4208H42.602L44.46 40.199L36.4797 47.1152L45.1554 44.8902L42.9058 26.1484L47.7649 23.9998L64.0002 41.5863L62.6321 46.0607L51.2821 48.9716L53.0845 63.9883L47.5244 64.6248ZM49.488 34.0321L50.6231 43.4878L56.7634 41.913L49.488 34.0321Z" fill="white"/>
</g>
<defs>
<clipPath id="clip0_43_429">
<rect width="40" height="40.625" fill="white" transform="translate(24 24)"/>
</clipPath>
</defs>
</svg>
