<svg width="48" height="48" viewBox="0 0 48 48" fill="none" xmlns="http://www.w3.org/2000/svg">
<g clip-path="url(#clip0_12_823)">
<path d="M26.1146 36.375L25.0882 27.8247L13.5415 30.7859L12.0001 27.9728L18.7383 22.133H14.1366L13.1558 19.1614L16.1114 17.0849L15.1107 16.9333L15.6258 13.6917L20.6783 14.4572L21.4016 17.4095L19.3473 18.8526H23.1612L24.276 21.7196L19.4878 25.8693L24.6932 24.5343L23.3434 13.2892L26.2589 12L36.0001 22.552L35.1792 25.2366L28.3692 26.9831L29.4507 35.9931L26.1146 36.375ZM27.2928 18.0194L27.9738 23.6929L31.658 22.748L27.2928 18.0194Z" fill="white"/>
</g>
<defs>
<clipPath id="clip0_12_823">
<rect width="24" height="24.375" fill="white" transform="translate(12 12)"/>
</clipPath>
</defs>
</svg>
