<svg width="88" height="88" viewBox="0 0 88 88" fill="none" xmlns="http://www.w3.org/2000/svg">
<path d="M52.3333 42.3333H39.6833L45.1833 36.85C45.4972 36.5361 45.6735 36.1105 45.6735 35.6667C45.6735 35.2228 45.4972 34.7972 45.1833 34.4833C44.8695 34.1695 44.4438 33.9932 44 33.9932C43.5562 33.9932 43.1305 34.1695 42.8167 34.4833L34.4833 42.8167C34.3316 42.9752 34.2126 43.1621 34.1333 43.3667C33.9666 43.7724 33.9666 44.2275 34.1333 44.6333C34.2126 44.8379 34.3316 45.0248 34.4833 45.1833L42.8167 53.5166C42.9716 53.6729 43.1559 53.7969 43.359 53.8815C43.5621 53.9661 43.78 54.0096 44 54.0096C44.22 54.0096 44.4379 53.9661 44.641 53.8815C44.8441 53.7969 45.0284 53.6729 45.1833 53.5166C45.3395 53.3617 45.4635 53.1774 45.5481 52.9743C45.6328 52.7712 45.6763 52.5533 45.6763 52.3333C45.6763 52.1133 45.6328 51.8955 45.5481 51.6924C45.4635 51.4893 45.3395 51.3049 45.1833 51.15L39.6833 45.6667H52.3333C52.7754 45.6667 53.1993 45.4911 53.5118 45.1785C53.8244 44.8659 54 44.442 54 44C54 43.558 53.8244 43.134 53.5118 42.8215C53.1993 42.5089 52.7754 42.3333 52.3333 42.3333Z" fill="white"/>
</svg>
