<svg width="48" height="48" viewBox="0 0 48 48" fill="none" xmlns="http://www.w3.org/2000/svg">
<path d="M29 22.9999H21.41L24.71 19.7099C24.8983 19.5216 25.0041 19.2662 25.0041 18.9999C25.0041 18.7336 24.8983 18.4782 24.71 18.2899C24.5217 18.1016 24.2663 17.9958 24 17.9958C23.7337 17.9958 23.4783 18.1016 23.29 18.2899L18.29 23.2899C18.199 23.385 18.1276 23.4972 18.08 23.6199C17.98 23.8634 17.98 24.1365 18.08 24.3799C18.1276 24.5027 18.199 24.6148 18.29 24.7099L23.29 29.7099C23.383 29.8037 23.4936 29.8781 23.6154 29.9288C23.7373 29.9796 23.868 30.0057 24 30.0057C24.132 30.0057 24.2627 29.9796 24.3846 29.9288C24.5065 29.8781 24.6171 29.8037 24.71 29.7099C24.8037 29.617 24.8781 29.5064 24.9289 29.3845C24.9797 29.2627 25.0058 29.132 25.0058 28.9999C25.0058 28.8679 24.9797 28.7372 24.9289 28.6154C24.8781 28.4935 24.8037 28.3829 24.71 28.2899L21.41 24.9999H29C29.2652 24.9999 29.5196 24.8946 29.7071 24.707C29.8947 24.5195 30 24.2652 30 23.9999C30 23.7347 29.8947 23.4804 29.7071 23.2928C29.5196 23.1053 29.2652 22.9999 29 22.9999Z" fill="white"/>
</svg>
